<svg width="140" height="44" viewBox="0 0 140 44" fill="none" xmlns="http://www.w3.org/2000/svg">
<path d="M47.1079 0C45.181 0 43.6165 1.50869 43.6165 3.36976C43.6165 5.23082 45.181 6.73951 47.1079 6.73951C49.0348 6.73951 50.5993 5.23082 50.5993 3.36976C50.5993 1.50869 49.0348 0 47.1079 0Z" fill="#2F1A4B"/>
<path d="M31.9437 2.14634H38.9264V35.044H31.9437V2.14634Z" fill="#2F1A4B"/>
<path fill-rule="evenodd" clip-rule="evenodd" d="M23.0072 18.9055C24.7976 19.4671 26.2002 20.413 27.2147 21.7431C28.2293 23.0436 28.7366 24.6545 28.7366 26.5758C28.7366 29.2951 27.6624 31.3937 25.5138 32.8715C23.3951 34.3199 20.2917 35.044 16.2035 35.044H0V4.00847H15.3083C19.1279 4.00847 22.0523 4.73264 24.0815 6.18097C26.1405 7.62929 27.17 9.59487 27.17 12.0777C27.17 13.5852 26.797 14.93 26.051 16.1123C25.3348 17.2947 24.3202 18.2257 23.0072 18.9055ZM7.20654 9.41752V16.733H14.4131C16.2035 16.733 17.5613 16.4227 18.4863 15.802C19.4114 15.1813 19.8739 14.265 19.8739 13.0531C19.8739 11.8413 19.4114 10.9398 18.4863 10.3486C17.5613 9.72789 16.2035 9.41752 14.4131 9.41752H7.20654ZM15.6664 29.635C17.5762 29.635 19.0085 29.3246 19.9634 28.7039C20.9482 28.0832 21.4406 27.1226 21.4406 25.822C21.4406 23.2505 19.5158 21.9648 15.6664 21.9648H7.20654V29.635H15.6664Z" fill="#2F1A4B"/>
<path d="M50.5993 11.191H43.6165V35.044H50.5993V11.191Z" fill="#2F1A4B"/>
<path fill-rule="evenodd" clip-rule="evenodd" d="M69.5234 10.8363C71.7615 10.8363 73.7906 11.3536 75.6109 12.3881C77.4611 13.393 78.9083 14.8266 79.9527 16.6887C80.9972 18.5213 81.5194 20.6642 81.5194 23.1175C81.5194 25.5708 80.9972 27.7285 79.9527 29.5906C78.9083 31.4232 77.4611 32.8568 75.6109 33.8913C73.7906 34.8962 71.7615 35.3987 69.5234 35.3987C66.4498 35.3987 64.0327 34.4381 62.2721 32.5168V43.6453H55.2894V11.191H61.9588V13.9399C63.6895 11.8708 66.2111 10.8363 69.5234 10.8363ZM68.3149 29.7237C70.1053 29.7237 71.5675 29.1325 72.7014 27.9502C73.8652 26.7383 74.4471 25.1274 74.4471 23.1175C74.4471 21.1076 73.8652 19.5115 72.7014 18.3292C71.5675 17.1173 70.1053 16.5114 68.3149 16.5114C66.5244 16.5114 65.0473 17.1173 63.8835 18.3292C62.7496 19.5115 62.1826 21.1076 62.1826 23.1175C62.1826 25.1274 62.7496 26.7383 63.8835 27.9502C65.0473 29.1325 66.5244 29.7237 68.3149 29.7237Z" fill="#2F1A4B"/>
<path fill-rule="evenodd" clip-rule="evenodd" d="M104.396 35.044H111.065V11.191H104.082V13.7182C102.352 11.7969 99.9494 10.8363 96.8758 10.8363C94.6079 10.8363 92.5489 11.3388 90.6988 12.3437C88.8785 13.3487 87.4462 14.7823 86.4017 16.6444C85.3573 18.5065 84.8351 20.6642 84.8351 23.1175C84.8351 25.5708 85.3573 27.7285 86.4017 29.5906C87.4462 31.4528 88.8785 32.8863 90.6988 33.8913C92.5489 34.8962 94.6079 35.3987 96.8758 35.3987C100.158 35.3987 102.665 34.3642 104.396 32.2952V35.044ZM102.471 27.9502C101.307 29.1325 99.845 29.7237 98.0844 29.7237C96.2939 29.7237 94.8168 29.1325 93.653 27.9502C92.4893 26.7383 91.9074 25.1274 91.9074 23.1175C91.9074 21.1076 92.4893 19.5115 93.653 18.3292C94.8168 17.1173 96.2939 16.5114 98.0844 16.5114C99.845 16.5114 101.307 17.1173 102.471 18.3292C103.635 19.5115 104.217 21.1076 104.217 23.1175C104.217 25.1274 103.635 26.7383 102.471 27.9502Z" fill="#2F1A4B"/>
<path d="M140 11.191V31.0537C140 35.4283 138.881 38.6796 136.643 40.8078C134.405 42.9359 131.152 44 126.885 44C124.617 44 122.469 43.7192 120.439 43.1576C118.44 42.596 116.754 41.7832 115.381 40.7191L118.157 35.7534C119.171 36.581 120.41 37.2313 121.872 37.7042C123.334 38.1772 124.811 38.4136 126.303 38.4136C128.631 38.4136 130.332 37.8816 131.406 36.8175C132.48 35.7534 133.017 34.1277 133.017 31.9405V31.1424C132.122 32.0292 131.063 32.709 129.839 33.1819C128.616 33.6548 127.303 33.8913 125.9 33.8913C122.737 33.8913 120.231 33.0045 118.38 31.2311C116.53 29.4281 115.605 26.7383 115.605 23.1618V11.191H122.588V22.1421C122.588 26.0142 124.214 27.9502 127.467 27.9502C129.138 27.9502 130.481 27.4182 131.495 26.3541C132.51 25.2604 133.017 23.6496 133.017 21.5214V11.191H140Z" fill="#2F1A4B"/>
</svg>
